<!DOCTYPE svg PUBLIC "-//W3C//DTD SVG 20010904//EN" "http://www.w3.org/TR/2001/REC-SVG-20010904/DTD/svg10.dtd">
<svg version="1.0" xmlns="http://www.w3.org/2000/svg" width="29px" height="29px" viewBox="0 0 290 290" preserveAspectRatio="xMidYMid meet">
<g id="layer101" fill="#4a7bdd" stroke="none">
 <path d="M66 271 c-45 -30 -66 -70 -66 -126 0 -88 57 -145 145 -145 88 0 145 57 145 145 0 88 -57 145 -145 145 -32 0 -60 -7 -79 -19z"/>
 </g>
<g id="layer102" fill="#adc1ef" stroke="none">
 <path d="M120 178 c-34 -57 -22 -98 30 -98 52 0 66 49 29 101 -26 37 -35 36 -59 -3z m48 -27 c23 -14 10 -46 -18 -46 -16 0 -26 6 -28 19 -3 16 12 36 28 36 3 0 11 -4 18 -9z"/>
 </g>
<g id="layer103" fill="#edf1fc" stroke="none">
 <path d="M120 168 c-25 -41 -25 -50 -2 -71 25 -23 45 -21 68 4 18 20 18 21 -1 57 -27 48 -40 50 -65 10z m59 -22 c22 -26 -10 -63 -43 -50 -35 13 -24 64 14 64 10 0 23 -6 29 -14z"/>
 </g>

</svg>