<!DOCTYPE svg PUBLIC "-//W3C//DTD SVG 20010904//EN" "http://www.w3.org/TR/2001/REC-SVG-20010904/DTD/svg10.dtd">
<svg version="1.0" xmlns="http://www.w3.org/2000/svg" width="29px" height="29px" viewBox="0 0 290 290" preserveAspectRatio="xMidYMid meet">
<g id="layer101" fill="#4b7bdd" stroke="none">
 <path d="M66 271 c-45 -30 -66 -70 -66 -126 0 -88 57 -145 145 -145 88 0 145 57 145 145 0 88 -57 145 -145 145 -32 0 -60 -7 -79 -19z"/>
 </g>
<g id="layer102" fill="#afc5ef" stroke="none">
 <path d="M140 186 c-31 -18 -55 -59 -46 -81 8 -23 31 -13 31 13 1 29 21 47 53 47 17 0 27 5 27 15 0 20 -34 23 -65 6z"/>
 </g>
<g id="layer103" fill="#f5f8fd" stroke="none">
 <path d="M154 190 c-20 -8 -64 -56 -64 -69 0 -3 5 -13 10 -21 9 -13 11 -13 20 0 5 8 7 22 4 32 -6 20 35 52 51 38 6 -5 16 -5 25 1 13 8 13 10 0 19 -18 11 -18 11 -46 0z"/>
 </g>

</svg>