<?xml version="1.0" standalone="no"?>
<!DOCTYPE svg PUBLIC "-//W3C//DTD SVG 20010904//EN"
 "http://www.w3.org/TR/2001/REC-SVG-20010904/DTD/svg10.dtd">
<svg version="1.0" xmlns="http://www.w3.org/2000/svg"
 width="20.000000pt" height="21.000000pt" viewBox="0 0 20.000000 21.000000"
 preserveAspectRatio="xMidYMid meet">
<metadata>
Created by potrace 1.15, written by Peter Selinger 2001-2017
</metadata>
<g transform="translate(0.000000,21.000000) scale(0.100000,-0.100000)"
fill="#000000" stroke="none">
<path d="M66 178 c-13 -18 -13 -25 -1 -55 12 -28 12 -33 0 -33 -23 0 -44 -29
-42 -57 2 -27 5 -28 62 -29 85 -1 95 3 95 38 0 23 -6 32 -30 42 -18 7 -26 16
-21 22 5 5 11 21 15 36 12 51 -48 79 -78 36z"/>
</g>
</svg>
